# xmcd CD database file
#
# Track frame offsets:
#	150
#	15610
#	33228
#	50291
#	70210
#	91241
#	115213
#	129573
#	142723
#	162616
#	187427
#	211404
#	231263
#	258655
#	285131
#	308563
#	335363
#
# Disc length: 4702 seconds
#
# Revision: 1
# Processed by: cddbd v1.5.1PL0 Copyright (c) Steve Scherf et al.
# Submitted via: CDex 1.51
#
DISCID=ef125c11
DTITLE=Various Artist - DJ Nik Volume 4
DYEAR=2005
DGENRE=Salsa
TTITLE0=Wuelfo - Bueno Y Pico
TTITLE1=Javier Vasquez - To No Me Has Visto Miguel
TTITLE2=Orquestra Capri - Virgencita Ayudame
TTITLE3=Fuego 77 - Tengo un Tumbao
TTITLE4=Orquestra Inmensidad - El Que Mas Goza
TTITLE5=Brooklyn Sounds - Ha Llegado un Momento
TTITLE6=Johnny Zamot canta: Manny Roman - Esta Como la Luna
TTITLE7=Orlando Manny y Orq. - Que Chevere
TTITLE8=Frankie Dante con Larry Harlow - Atajala:Se Acabo la Guerra
TTITLE9=Chocolate Armenteros - Nicolasa(Tien Pimienta)
TTITLE10=Angel Canales - Solo Se Que Tiene Nombre De Mujer
TTITLE11=Johnny Colon - Mala Mujer
TTITLE12=Impacto Crea - Triago Alegria
TTITLE13=Frankie Danta y Markolino Dimond - Los Rumberos
TTITLE14=Louis Cruz - Mi Angel De La Guarda
TTITLE15=Mongo Santamaria - MamboMongo
TTITLE16=Wuelfo - Hechicera Tu
EXTD=YEAR: 2005
EXTT0=
EXTT1=
EXTT2=
EXTT3=
EXTT4=
EXTT5=
EXTT6=
EXTT7=
EXTT8=
EXTT9=
EXTT10=
EXTT11=
EXTT12=
EXTT13=
EXTT14=
EXTT15=
EXTT16=
PLAYORDER=
